<svg version="1.1" xmlns="http://www.w3.org/2000/svg" xmlns:xlink="http://www.w3.org/1999/xlink" width="500" height="500"><defs><linearGradient x1="50" y1="120.50941" x2="50" y2="379.49059" gradientUnits="userSpaceOnUse" id="color-1"><stop offset="0" stop-color="#080a03"></stop><stop offset="1" stop-color="#030a03"></stop></linearGradient></defs><g data-paper-data="{&quot;description&quot;:&quot;Logo for CMIF\n=============\n\nThis logo was generated by MarkMaker at http://emblemmatic.org/markmaker/ and may be composed of elements designed by others.\n\nThe font is Pacifico Regular designed by Vernon Adams and released under the OFL license via Google Fonts: https://www.google.com/fonts/specimen/Pacifico. The font includes this copyright statement: Copyright (c) 2011 by Vernon Adams (vern@newtypography.co.uk) with Reserved Font Name 'Pacifico'. All rights reserved.\n\nMarkMaker uses semantic data from the Princeton University WordNet database http://wordnet.princeton.edu and font descriptions from Google Fonts https://www.google.com/fonts.&quot;}" fill="url(#color-1)" fill-rule="nonzero" stroke="none" stroke-width="1" stroke-linecap="butt" stroke-linejoin="miter" stroke-miterlimit="10" stroke-dasharray="" stroke-dashoffset="0" font-family="none" font-weight="none" font-size="none" text-anchor="none" style="mix-blend-mode: normal"><g data-paper-data="{&quot;elementType&quot;:&quot;logo&quot;}"><g data-paper-data="{&quot;elementType&quot;:&quot;text&quot;}"><g data-paper-data="{&quot;baseline&quot;:90.625,&quot;elementType&quot;:&quot;row&quot;}"><g data-paper-data="{&quot;baselineProportion&quot;:0.7544715447154472,&quot;fontSize&quot;:100,&quot;baseline&quot;:90.625,&quot;elementType&quot;:&quot;word&quot;}"><path d="M225.81242,280.31975c-3.43905,1.47388 -6.77281,3.4215 -10.00131,5.84287c-3.22849,2.42137 -6.49208,5.07084 -9.79075,7.94841c-3.29868,2.87757 -6.72018,5.91305 -10.2645,9.10645c-3.54432,3.1934 -7.36938,6.35171 -11.47518,9.47492c-4.1058,3.12321 -8.58007,6.10606 -13.4228,8.94854c-4.84274,2.84248 -10.19431,5.33403 -16.05473,7.47466c-5.86041,2.14063 -12.3174,3.84261 -19.37095,5.10593c-7.05355,1.26332 -14.86159,1.89498 -23.42411,1.89498c-9.47492,0 -18.0199,-1.91253 -25.63492,-5.73759c-7.61503,-3.82506 -14.12465,-8.98363 -19.52886,-15.4757c-5.40421,-6.49208 -9.56265,-14.03692 -12.47531,-22.63453c-2.91266,-8.59761 -4.36899,-17.63388 -4.36899,-27.1088c0,-6.45698 0.70185,-13.38771 2.10554,-20.79219c1.40369,-7.40448 3.4215,-14.94932 6.05342,-22.63453c2.63192,-7.68521 5.84287,-15.35288 9.63284,-23.003c3.78997,-7.65012 8.08878,-14.98441 12.89642,-22.00287c4.80765,-7.01846 10.08904,-13.52808 15.84417,-19.52886c5.75514,-6.00078 11.89629,-11.22954 18.42346,-15.68626c6.52717,-4.45672 13.40526,-7.94841 20.63427,-10.47505c7.22901,-2.52665 14.73877,-3.78997 22.52926,-3.78997c5.05329,0 10.17677,0.89485 15.37043,2.68456c5.19366,1.78971 9.86094,4.54445 14.00183,8.26424c4.14089,3.71978 7.5273,8.42215 10.15922,14.1071c2.63192,5.68495 3.94788,12.38758 3.94788,20.10789c0,5.19366 -0.82467,10.43996 -2.47401,15.7389c-1.64934,5.29894 -3.91279,10.38732 -6.79036,15.26515c-2.87757,4.87783 -6.26398,9.45737 -10.15922,13.73864c-3.89525,4.28126 -8.08878,7.9835 -12.58059,11.10671c-4.49181,3.12321 -9.15909,5.59722 -14.00183,7.42202c-4.84274,1.8248 -9.68547,2.7372 -14.52821,2.7372c-6.3868,0 -11.15935,-0.85976 -14.31766,-2.57928c-3.15831,-1.71952 -4.73746,-4.19353 -4.73746,-7.42202c0,-0.56148 -0.01755,-1.22823 -0.05264,-2.00026c-0.03509,-0.77203 -0.05264,-1.57915 -0.05264,-2.42137c0,-1.26332 0.07018,-2.57928 0.21055,-3.94788c0.14037,-1.3686 0.42111,-2.61438 0.84222,-3.73733c0.42111,-1.12295 1.03522,-2.03535 1.84235,-2.7372c0.80712,-0.70185 1.91253,-1.05277 3.31622,-1.05277c0.84222,0 1.57915,0.12282 2.21081,0.36847c0.63166,0.24565 1.33351,0.50884 2.10554,0.78958c0.77203,0.28074 1.70198,0.54393 2.78984,0.78958c1.08786,0.24565 2.47401,0.36847 4.15844,0.36847c4.49181,0 9.03627,-0.98258 13.63336,-2.94775c4.59709,-1.96517 8.73798,-4.73746 12.42267,-8.31688c3.68469,-3.57941 6.70263,-7.84313 9.05381,-12.79114c2.35118,-4.94801 3.52678,-10.40487 3.52678,-16.37056c0,-3.15831 -0.42111,-6.1587 -1.26332,-9.00117c-0.84222,-2.84248 -2.21081,-5.33403 -4.1058,-7.47466c-1.89498,-2.14063 -4.3339,-3.86015 -7.31674,-5.15857c-2.98285,-1.29842 -6.6149,-1.94762 -10.89616,-1.94762c-5.05329,0 -9.98376,1.10541 -14.7914,3.31622c-4.80765,2.21081 -9.42228,5.21121 -13.84391,9.00117c-4.42163,3.78997 -8.61516,8.28178 -12.58059,13.47544c-3.96543,5.19366 -7.63258,10.75579 -11.00144,16.68639c-3.36886,5.9306 -6.40434,12.10684 -9.10645,18.52873c-2.70211,6.42189 -5.00065,12.82624 -6.89564,19.21303c-1.89498,6.3868 -3.35131,12.58059 -4.36899,18.58137c-1.01768,6.00078 -1.52652,11.52782 -1.52652,16.58111c0,7.22901 0.89485,13.52808 2.68456,18.8972c1.78971,5.36912 4.3339,9.84339 7.63258,13.4228c3.29868,3.57941 7.33429,6.24643 12.10684,8.00104c4.77255,1.75461 10.14167,2.63192 16.10737,2.63192c7.43957,0 14.3703,-0.92995 20.79219,-2.78984c6.42189,-1.85989 12.5455,-4.29881 18.37082,-7.31674c5.82532,-3.01794 11.45764,-6.42189 16.89694,-10.21186c5.43931,-3.78997 10.87861,-7.59748 16.31792,-11.42254c5.43931,-3.82506 10.98389,-7.47466 16.63375,-10.9488c5.64986,-3.47414 11.6331,-6.40434 17.94971,-8.79062z" data-paper-data="{&quot;elementType&quot;:&quot;letter&quot;,&quot;baseline&quot;:87.5,&quot;baselineProportion&quot;:0.9032258064516129,&quot;fontSize&quot;:100}"></path><path d="M236.04197,296.21656c0,-0.9124 0.07018,-2.21081 0.21055,-3.89525c0.14037,-1.68443 0.35092,-3.61451 0.63166,-5.79023c0.28074,-2.17572 0.59657,-4.47427 0.94749,-6.89564c0.35092,-2.42137 0.70185,-4.82519 1.05277,-7.21147c0.77203,-5.61477 1.71952,-11.65064 2.84248,-18.10763h-1.57915c-0.84222,1.05277 -1.80725,2.63192 -2.89511,4.73746c-1.08786,2.10554 -2.61438,5.19366 -4.57955,9.26437c-1.96517,4.07071 -4.47427,9.3521 -7.5273,15.84417c-3.05303,6.49208 -7.00091,14.61594 -11.84365,24.3716c-1.40369,2.87757 -3.03548,4.82519 -4.89538,5.84287c-1.85989,1.01768 -3.91279,1.52652 -6.1587,1.52652c-2.87757,0 -5.19366,-0.61412 -6.94828,-1.84235c-1.75461,-1.22823 -3.10567,-2.87757 -4.05316,-4.94801c-0.94749,-2.07045 -1.57915,-4.42163 -1.89498,-7.05355c-0.31583,-2.63192 -0.47375,-5.35158 -0.47375,-8.15896c0,-2.87757 0.17546,-6.28152 0.52638,-10.21186c0.35092,-3.93034 0.80712,-8.07123 1.3686,-12.42267c0.56148,-4.35145 1.21068,-8.79062 1.94762,-13.31753c0.73694,-4.52691 1.50897,-8.86081 2.31609,-13.0017c0.80712,-4.14089 1.63179,-7.93086 2.47401,-11.36991c0.84222,-3.43905 1.61425,-6.24643 2.31609,-8.42215c0.70185,-2.24591 1.3686,-4.03561 2.00026,-5.36912c0.63166,-1.33351 1.35105,-2.36873 2.15818,-3.10567c0.80712,-0.73694 1.77216,-1.22823 2.89511,-1.47388c1.12295,-0.24565 2.56174,-0.36847 4.31635,-0.36847c2.66701,0 4.75501,0.08773 6.26398,0.26319c1.50897,0.17546 2.63192,0.59657 3.36886,1.26332c0.73694,0.66675 1.17559,1.63179 1.31596,2.89511c0.14037,1.26332 0.21055,2.98285 0.21055,5.15857c0,1.19314 -0.05264,2.56174 -0.15792,4.1058c-0.10528,1.54406 -0.26319,3.1934 -0.47375,4.94801c-0.21055,1.75461 -0.43865,3.56187 -0.6843,5.42176c-0.24565,1.85989 -0.50884,3.66715 -0.78958,5.42176c-0.63166,4.14089 -1.29842,8.42215 -2.00026,12.84378l1.15805,1.26332c0.14037,-0.21055 0.89485,-1.54406 2.26345,-4.00052c1.3686,-2.45646 3.05303,-5.40421 5.05329,-8.84326c2.00026,-3.43905 4.15844,-7.03601 6.47453,-10.79088c2.31609,-3.75488 4.52691,-7.0711 6.63244,-9.94867c2.03535,-2.87757 4.19353,-5.26384 6.47453,-7.15883c2.281,-1.89498 5.00065,-2.84248 8.15896,-2.84248c2.94775,0 5.4744,0.85976 7.57994,2.57928c2.10554,1.71952 3.15831,4.15844 3.15831,7.31674c0,2.7372 -0.17546,5.33403 -0.52638,7.79049c-0.35092,2.45646 -0.78958,4.84274 -1.31596,7.15883c-0.52638,2.31609 -1.07032,4.57955 -1.63179,6.79036c-0.56148,2.21081 -1.08786,4.47427 -1.57915,6.79036c-0.35092,1.61425 -0.56148,2.63192 -0.63166,3.05303c-0.07018,0.42111 -0.10528,0.70185 -0.10528,0.84222l1.15805,1.26332c0.14037,-0.21055 0.94749,-1.52652 2.42137,-3.94788c1.47388,-2.42137 3.28113,-5.35158 5.42176,-8.79062c2.14063,-3.43905 4.42163,-7.05355 6.843,-10.84352c2.42137,-3.78997 4.68482,-7.12374 6.79036,-10.00131c2.03535,-2.80738 4.07071,-5.17611 6.10606,-7.10619c2.03535,-1.93008 4.52691,-2.89511 7.47466,-2.89511c3.29868,0 6.08851,0.85976 8.36951,2.57928c2.281,1.71952 3.4215,4.15844 3.4215,7.31674c0,4.84274 -0.24565,9.43983 -0.73694,13.79127c-0.49129,4.35145 -1.05277,8.63271 -1.68443,12.84378c-0.63166,4.21108 -1.19314,8.47479 -1.68443,12.79114c-0.49129,4.31635 -0.73694,8.8959 -0.73694,13.73864c0,3.78997 0.49129,6.87809 1.47388,9.26437c0.98258,2.38628 2.17572,3.57941 3.57941,3.57941c1.47388,0 3.01794,-0.31583 4.63218,-0.94749c1.61425,-0.63166 3.26358,-1.43878 4.94801,-2.42137c1.68443,-0.98258 3.33377,-2.12308 4.94801,-3.4215c1.61425,-1.29842 3.15831,-2.64947 4.63218,-4.05316c3.43905,-3.22849 6.843,-6.87809 10.21186,-10.9488l1.78971,24.84535c-3.08812,2.45646 -6.1587,5.00065 -9.21173,7.63258c-3.05303,2.63192 -6.28152,5.0182 -9.68547,7.15883c-3.40395,2.14063 -7.14128,3.89525 -11.21199,5.26384c-4.07071,1.3686 -8.6678,2.0529 -13.79127,2.0529c-2.52665,0 -4.64973,-0.82467 -6.36925,-2.47401c-1.71952,-1.64934 -3.10567,-3.94788 -4.15844,-6.89564c-1.05277,-2.94775 -1.80725,-6.42189 -2.26345,-10.42241c-0.4562,-4.00052 -0.6843,-8.35197 -0.6843,-13.05434c0,-4.42163 0.15792,-9.10645 0.47375,-14.05447c0.31583,-4.94801 0.75448,-9.94867 1.31596,-15.00196h-1.57915l-21.37121,54.42816c-1.8248,2.94775 -3.86015,4.93047 -6.10606,5.94814c-2.24591,1.01768 -4.84274,1.52652 -7.79049,1.52652c-2.24591,0 -4.03561,-0.61412 -5.36912,-1.84235c-1.33351,-1.22823 -2.36873,-2.80738 -3.10567,-4.73746c-0.73694,-1.93008 -1.22823,-4.05316 -1.47388,-6.36925c-0.24565,-2.31609 -0.36847,-4.562 -0.36847,-6.73772z" data-paper-data="{&quot;elementType&quot;:&quot;letter&quot;,&quot;baseline&quot;:46.875,&quot;baselineProportion&quot;:1,&quot;fontSize&quot;:100}"></path><path d="M381.65761,293.47936c-2.52665,2.31609 -5.66741,4.7901 -9.42228,7.42202c-3.75488,2.63192 -7.80804,5.05329 -12.15948,7.26411c-4.35145,2.21081 -8.79062,4.05316 -13.31753,5.52704c-4.52691,1.47388 -8.82571,2.21081 -12.89642,2.21081c-3.6496,0 -6.72018,-0.50884 -9.21173,-1.52652c-2.49155,-1.01768 -4.50936,-2.43891 -6.05342,-4.26371c-1.54406,-1.8248 -2.64947,-4.05316 -3.31622,-6.68508c-0.66675,-2.63192 -1.00013,-5.52704 -1.00013,-8.68534c0,-4.42163 0.50884,-9.56265 1.52652,-15.42307c1.01768,-5.86041 2.26345,-11.93138 3.73733,-18.2129c1.47388,-6.28152 3.03548,-12.5455 4.68482,-18.79193c1.64934,-6.24643 3.10567,-12.00157 4.36899,-17.26541c0.49129,-1.8248 1.47388,-3.38641 2.94775,-4.68482c1.47388,-1.29842 3.14076,-2.35118 5.00065,-3.15831c1.85989,-0.80712 3.78997,-1.40369 5.79023,-1.78971c2.00026,-0.38602 3.80751,-0.57902 5.42176,-0.57902c2.94775,0 4.94801,0.54393 6.00078,1.63179c1.05277,1.08786 1.57915,2.54419 1.57915,4.36899c0,1.54406 -0.35092,3.77242 -1.05277,6.68508c-0.70185,2.91266 -1.57915,6.21134 -2.63192,9.89603c-1.05277,3.68469 -2.17572,7.65012 -3.36886,11.89629c-1.19314,4.24617 -2.31609,8.49234 -3.36886,12.7385c-1.05277,4.24617 -1.93008,8.38706 -2.63192,12.42267c-0.70185,4.03561 -1.05277,7.66767 -1.05277,10.89616c0,3.15831 0.35092,5.66741 1.05277,7.5273c0.70185,1.85989 2.14063,2.78984 4.31635,2.78984c2.52665,0 5.33403,-0.87731 8.42215,-2.63192c3.08812,-1.75461 6.21134,-3.8777 9.36964,-6.36925c3.15831,-2.49155 6.24643,-5.07084 9.26437,-7.73785c3.01794,-2.66701 5.68495,-4.94801 8.00104,-6.843v21.37121M334.59883,185.25471c0,-1.61425 0.35092,-3.43905 1.05277,-5.4744c0.70185,-2.03535 1.84235,-3.94788 3.4215,-5.73759c1.57915,-1.78971 3.68469,-3.29868 6.31661,-4.52691c2.63192,-1.22823 5.91305,-1.84235 9.84339,-1.84235c2.45646,0 4.77255,0.28074 6.94828,0.84222c2.17572,0.56148 4.07071,1.42124 5.68495,2.57928c1.61425,1.15805 2.89511,2.68456 3.84261,4.57955c0.94749,1.89498 1.42124,4.14089 1.42124,6.73772c0,2.38628 -0.38602,4.70237 -1.15805,6.94828c-0.77203,2.24591 -2.00026,4.24617 -3.68469,6.00078c-1.68443,1.75461 -3.80751,3.17585 -6.36925,4.26371c-2.56174,1.08786 -5.63231,1.63179 -9.21173,1.63179c-6.17624,0 -10.73824,-1.45633 -13.686,-4.36899c-2.94775,-2.91266 -4.42163,-6.79036 -4.42163,-11.6331z" data-paper-data="{&quot;elementType&quot;:&quot;letter&quot;,&quot;baseline&quot;:68.75,&quot;baselineProportion&quot;:1,&quot;fontSize&quot;:100}"></path><path d="M355.14551,319.90386c0,-0.35092 0.08773,-2.49155 0.26319,-6.42189c0.17546,-3.93034 0.50884,-9.15909 1.00013,-15.68626c0.49129,-6.52717 1.15805,-14.05447 2.00026,-22.58189c0.84222,-8.52743 1.94762,-17.54615 3.31622,-27.05616c1.3686,-9.51001 2.98285,-19.26567 4.84274,-29.26698c1.85989,-10.00131 4.07071,-19.73942 6.63244,-29.21434c2.56174,-9.47492 5.49194,-18.40591 8.79062,-26.79297c3.29868,-8.38706 7.00091,-15.72135 11.10671,-22.00287c4.1058,-6.28152 8.68534,-11.24708 13.73864,-14.89668c5.05329,-3.6496 10.59787,-5.4744 16.63375,-5.4744c2.38628,0 4.89538,0.42111 7.5273,1.26332c2.63192,0.84222 5.03575,2.21081 7.21147,4.1058c2.17572,1.89498 3.98298,4.40408 5.42176,7.5273c1.43878,3.12321 2.15818,6.96582 2.15818,11.52782c0,4.14089 -0.64921,8.8959 -1.94762,14.26502c-1.29842,5.36912 -3.12321,11.10671 -5.4744,17.21277c-2.35118,6.10606 -5.12348,12.45777 -8.31688,19.05512c-3.1934,6.59735 -6.68508,13.17716 -10.47505,19.73942c-3.78997,6.56226 -7.77294,13.01924 -11.94893,19.37095c-4.17598,6.35171 -8.4397,12.29985 -12.79114,17.84443l-0.21055,1.68443c1.40369,-0.70185 2.45646,-1.15805 3.15831,-1.3686c0.70185,-0.21055 1.43878,-0.31583 2.21081,-0.31583c0.9124,0 1.64934,0.08773 2.21081,0.26319c0.56148,0.17546 1.07032,0.36847 1.52652,0.57902c0.4562,0.21055 0.92995,0.40356 1.42124,0.57902c0.49129,0.17546 1.08786,0.26319 1.78971,0.26319c6.94828,0 13.08943,-0.82467 18.42346,-2.47401c5.33403,-1.64934 9.82584,-3.49168 13.47544,-5.52704c4.28126,-2.31609 8.00104,-5.0182 11.15935,-8.10632l-2.31609,25.58229c-4.63218,2.52665 -9.47492,4.49181 -14.52821,5.89551c-5.05329,1.40369 -9.72057,2.45646 -14.00183,3.15831c-4.98311,0.77203 -9.93112,1.26332 -14.84404,1.47388c2.52665,4.63218 4.80765,9.43983 6.843,14.42294c1.75461,4.28126 3.35131,9.07136 4.7901,14.3703c1.43878,5.29894 2.15818,10.65051 2.15818,16.05473c0,0.63166 -0.08773,1.96517 -0.26319,4.00052c-0.17546,2.03535 -0.47375,4.52691 -0.89485,7.47466c-0.42111,2.94775 -1.01768,6.21134 -1.78971,9.79075c-0.77203,3.57941 -1.77216,7.19392 -3.00039,10.84352c-1.22823,3.6496 -2.71965,7.17638 -4.47427,10.58033c-1.75461,3.40395 -3.80751,6.42189 -6.1587,9.05381c-2.35118,2.63192 -5.05329,4.75501 -8.10632,6.36925c-3.05303,1.61425 -6.50962,2.42137 -10.36977,2.42137c-3.86015,0 -7.22901,-0.87731 -10.10658,-2.63192c-2.87757,-1.75461 -5.33403,-4.12335 -7.36938,-7.10619c-2.03535,-2.98285 -3.73733,-6.45698 -5.10593,-10.42241c-1.3686,-3.96543 -2.43891,-8.15896 -3.21095,-12.58059c-0.77203,-4.42163 -1.31596,-8.93099 -1.63179,-13.52808c-0.31583,-4.59709 -0.47375,-9.03627 -0.47375,-13.31753M383.25445,269.37095c-0.28074,0 -0.59657,0.78958 -0.94749,2.36873c-0.35092,1.57915 -0.6843,3.61451 -1.00013,6.10606c-0.31583,2.49155 -0.61412,5.28139 -0.89485,8.36951c-0.28074,3.08812 -0.52638,6.12361 -0.73694,9.10645c-0.21055,2.98285 -0.38602,5.75514 -0.52638,8.31688c-0.14037,2.56174 -0.21055,4.57955 -0.21055,6.05342c0,10.31714 0.19301,18.52873 0.57902,24.63479c0.38602,6.10606 0.87731,10.73824 1.47388,13.89655c0.59657,3.15831 1.26332,5.21121 2.00026,6.1587c0.73694,0.94749 1.49142,1.42124 2.26345,1.42124c2.38628,0 4.29881,-1.08786 5.73759,-3.26358c1.43878,-2.17572 2.52665,-4.93047 3.26358,-8.26424c0.73694,-3.33377 1.22823,-6.98337 1.47388,-10.9488c0.24565,-3.96543 0.36847,-7.77294 0.36847,-11.42254c0,-2.45646 -0.19301,-5.4744 -0.57902,-9.05381c-0.38602,-3.57941 -0.9124,-7.31674 -1.57915,-11.21199c-0.66675,-3.89525 -1.43878,-7.77294 -2.31609,-11.6331c-0.87731,-3.86015 -1.78971,-7.31674 -2.7372,-10.36977c-0.94749,-3.05303 -1.91253,-5.52704 -2.89511,-7.42202c-0.98258,-1.89498 -1.89498,-2.84248 -2.7372,-2.84248M408.83673,154.51385c-4.07071,10.10658 -7.26411,19.00248 -9.5802,26.68769c-2.31609,7.68521 -4.07071,14.51067 -5.26384,20.47636c-1.19314,5.96569 -2.03535,11.21199 -2.52665,15.7389c-0.49129,4.52691 -0.98258,8.72044 -1.47388,12.58059c4.28126,-8.07123 8.59761,-16.01963 12.94906,-23.84522c4.35145,-7.82558 8.28178,-15.08969 11.79101,-21.79232c3.50923,-6.70263 6.36925,-12.61568 8.58007,-17.73916c2.21081,-5.12348 3.31622,-9.01872 3.31622,-11.68574c0,-3.71978 -0.52638,-6.43944 -1.57915,-8.15896c-1.05277,-1.71952 -2.49155,-2.57928 -4.31635,-2.57928c-3.22849,0 -5.68495,0.85976 -7.36938,2.57928c-1.68443,1.71952 -3.1934,4.29881 -4.52691,7.73785z" data-paper-data="{&quot;elementType&quot;:&quot;letter&quot;,&quot;baseline&quot;:90.625,&quot;baselineProportion&quot;:0.7544715447154472,&quot;fontSize&quot;:100}"></path></g></g></g></g></g></svg>